<?xml version="1.0" encoding="utf-8"?>
<!-- Generator: Adobe Illustrator 27.0.0, SVG Export Plug-In . SVG Version: 6.00 Build 0)  -->
<svg version="1.1" id="vector" xmlns="http://www.w3.org/2000/svg" xmlns:xlink="http://www.w3.org/1999/xlink" x="0px" y="0px"
	 viewBox="0 0 512 181" style="enable-background:new 0 0 512 181;" xml:space="preserve">
<style type="text/css">
	.st0{fill:#68813C;}
	.st1{fill-rule:evenodd;clip-rule:evenodd;fill:#FFBF3C;}
	.st2{fill-rule:evenodd;clip-rule:evenodd;fill:#414141;}
	.st3{fill-rule:evenodd;clip-rule:evenodd;fill:#68813C;}
	.st4{fill:#FFBF3C;}
</style>
<path class="st0" d="M132.2,98.4l32.9,74.4h-19.9l-23.5-56.6c-7.1,18.9-14.2,37.7-21.3,56.6H80.7l29.9-74.4H132.2z"/>
<path class="st0" d="M188.8,112v16.9h9.7c3.1,0,5.6-0.7,7.4-2.2c1.8-1.5,2.7-3.6,2.7-6.3c0-5.6-3.5-8.4-10.5-8.4
	C198.1,112,188.8,112,188.8,112z M170.2,98.4h33.2c7.2,0,13.1,2.1,17.6,6.3c4.5,4.2,6.7,9.2,6.7,15.2c0,8.2-4.3,14.3-12.8,18.2
	c3.8,1.7,7.3,6.2,10.7,13.7s6.6,14.5,9.7,21.1H215c-1.2-2.5-3.3-7.1-6.4-14c-3-6.9-5.6-11.3-7.7-13.3c-2.1-2-4.4-2.9-6.9-2.9h-5.3
	v30.2h-18.5V98.4z"/>
<polygon class="st0" points="259.9,172.8 259.9,138.3 230.5,98.4 253,98.4 269.2,121.8 285.4,98.4 307.8,98.4 278.4,138.3 
	278.4,172.8 "/>
<path class="st0" d="M356.8,97.4c7.4,1.7,13.8,5.1,19.1,10.3c7.8,7.7,11.8,16.6,11.8,26.8c0,10.3-4,19.3-11.9,26.9
	c-7.9,7.6-18.2,11.4-30.6,11.4c-12.6,0-22.9-3.8-30.8-11.3c-7.9-7.6-11.9-16.5-11.9-26.9c0-10.2,3.9-19.2,11.8-26.8
	c7.5-7.3,17.3-11.2,29.3-11.5c-6.1,9.1-14.5,16.7-19.7,27.3l-0.1,0.3v0.1l0,0l-0.1,0.2l-0.1,0.2c-1.3,3-2,6.4-2,10.1
	c0,6.8,2.2,12.3,6.5,16.5s10,6.3,17.1,6.3c7,0,12.7-2.1,17-6.3s6.5-9.7,6.5-16.5c0-6.9-2.1-12.4-6.5-16.5c-4.3-4.2-10-6.3-17-6.3
	c-0.6,0-1.3,0-1.9,0.1L356.8,97.4z"/>
<polygon class="st0" points="473,98.4 473,172.8 457.5,172.8 416.3,125.1 416.3,172.8 397.8,172.8 397.8,98.4 414.8,98.4 
	454.5,143.8 454.5,98.4 "/>
<polygon class="st0" points="72.2,98.4 44.6,133.3 77.5,172.8 54.2,172.8 24.8,137.9 24.8,172.8 6.3,172.8 6.3,98.4 24.8,98.4 
	24.8,131.9 51.8,98.4 "/>
<path class="st1" d="M255.1,47.4c0,0.2,0,0.3,0,0.5V48c-0.2,4.5-0.2,9,0,13.5v0.1c0,0.3,0,0.6,0.1,1v0.1V63c4.5,3,9.2,5.7,14.1,8.1
	c4.8-2.4,9.5-5.1,14.1-8.1l0,0c0-0.2,0-0.4,0-0.6c0-0.2,0-0.4,0-0.6c0.2-4.9,0.2-9.8,0-14.7V47v-0.3c-4.5-3-9.2-5.7-14.1-8.1
	c-4.8,2.4-9.5,5.1-14.1,8.1l0,0C255.2,47.1,255.2,47.2,255.1,47.4"/>
<path class="st2" d="M489.4,110h2.6c1.2,0,2.1-0.2,2.5-0.6c0.5-0.4,0.7-0.9,0.7-1.5c0-0.4-0.1-0.7-0.3-1c-0.2-0.3-0.5-0.5-0.9-0.7
	c-0.4-0.1-1.1-0.2-2.2-0.2h-2.4L489.4,110L489.4,110z M487.2,117.5v-13.2h4.6c1.6,0,2.7,0.1,3.4,0.4c0.7,0.2,1.3,0.7,1.7,1.3
	c0.4,0.6,0.6,1.3,0.6,1.9c0,1-0.3,1.8-1,2.5s-1.6,1.1-2.8,1.2c0.5,0.2,0.8,0.4,1.1,0.7c0.5,0.5,1.2,1.4,2,2.6l1.6,2.6h-2.6l-1.2-2.1
	c-0.9-1.6-1.7-2.7-2.2-3.1c-0.4-0.3-1-0.5-1.7-0.4h-1.3v5.6H487.2z M492.6,100.4c-1.7,0-3.4,0.4-5.1,1.3c-1.6,0.9-2.9,2.2-3.8,3.8
	c-0.9,1.7-1.4,3.4-1.4,5.2c0,1.8,0.5,3.5,1.4,5.1s2.2,2.9,3.8,3.8c1.6,0.9,3.3,1.4,5.1,1.4c1.8,0,3.5-0.5,5.1-1.4s2.9-2.2,3.8-3.8
	c0.9-1.6,1.4-3.3,1.4-5.1c0-1.8-0.5-3.5-1.4-5.2c-0.9-1.6-2.2-2.9-3.8-3.8C496,100.8,494.4,100.4,492.6,100.4z M492.6,98.4
	c2.1,0,4.1,0.5,6.1,1.6s3.5,2.6,4.6,4.6s1.7,4,1.7,6.2c0,2.1-0.5,4.2-1.6,6.1c-1.1,2-2.6,3.5-4.6,4.6s-4,1.6-6.1,1.6
	s-4.2-0.5-6.1-1.6c-2-1.1-3.5-2.6-4.6-4.6s-1.6-4-1.6-6.1s0.6-4.2,1.7-6.2s2.6-3.5,4.6-4.6C488.6,98.9,490.6,98.4,492.6,98.4z"/>
<path class="st3" d="M343.2,111.7c-7-0.7-1.4-16.1,9.1-15.1c3.6,0.4,4.4,0.8,7.9,1.7c0,0,8.9,19.4-6.7,14.5
	C348.2,111.2,343.2,111.7,343.2,111.7z"/>
<rect x="97.4" y="142.5" class="st3" width="49.3" height="13.6"/>
<path class="st4" d="M255.5,42.2c0,0,2.7-26.2,12.6-36.8C279,16.6,281,29.9,281,29.9C267.5,34.5,255.5,42.2,255.5,42.2z"/>
<path class="st0" d="M282.9,67.7c0,0-2.7,26.2-12.6,36.8C259.5,93.3,257.5,80,257.5,80C271,75.5,282.9,67.7,282.9,67.7z"/>
<path class="st4" d="M273.4,36.8c0,0,24-10.8,38.2-7.6c-4.2,15-14.7,23.4-14.7,23.4C286.1,43.2,273.4,36.8,273.4,36.8z"/>
<path class="st0" d="M287,49.5c0,0,21.3,15.5,25.5,29.3c-15.1,3.8-27.6-1.2-27.6-1.2C287.7,63.7,287,49.5,287,49.5z"/>
<g>
	<path class="st0" d="M265,73.2c0,0-24,10.8-38.2,7.6c4.2-15,14.7-23.4,14.7-23.4C252.3,66.7,265,73.2,265,73.2z"/>
	<path class="st4" d="M251.4,60.5c0,0-21.3-15.5-25.5-29.3c15.1-3.8,27.6,1.2,27.6,1.2C250.7,46.3,251.4,60.5,251.4,60.5z"/>
</g>
</svg>
